PathFileType	3	(X/Y/Z)	C:\Users\koon_\Desktop\
DataRate	CameraRate	NumFrames	NumMarkers	Units	OrigDataRate	OrigDataStartFrame	OrigNumFrames
100.0	100.0	10	27	mm	100.0	883	3531	
Frame#	Time	get:LFHD			get:RFHD			get:LBHD			get:RBHD			get:C7			get:T10			get:CLAV			get:STRN			get:RBAK			get:LSHO			get:LUPA			get:LELB			get:LFRA			get:LWRA			get:LWRB			get:LFIN			get:RSHO			get:RUPA			get:RELB			get:RFRA			get:RWRA			get:RWRB			get:RFIN			get:LASI			get:RASI			get:LPSI			get:RPSI			
		X1	Y1	Z1	X2	Y2	Z2	X3	Y3	Z3	X4	Y4	Z4	X5	Y5	Z5	X6	Y6	Z6	X7	Y7	Z7	X8	Y8	Z8	X9	Y9	Z9	X10	Y10	Z10	X11	Y11	Z11	X12	Y12	Z12	X13	Y13	Z13	X14	Y14	Z14	X15	Y15	Z15	X16	Y16	Z16	X17	Y17	Z17	X18	Y18	Z18	X19	Y19	Z19	X20	Y20	Z20	X21	Y21	Z21	X22	Y22	Z22	X23	Y23	Z23	X24	Y24	Z24	X25	Y25	Z25	X26	Y26	Z26	X27	Y27	Z27	
883	8.82	-38.146206	1542.7366	-24.722853	-159.36461	1522.1714	-105.84565	37.847363	1521.3792	-139.0157	-90.56839	1495.3441	-217.43651	-33.520088	1328.4484	-210.99948	-10.032665	1114.4172	-241.52473	-26.510996	1236.1326	-17.682125	-15.103904	1081.776	23.413937	-115.52859	1247.6294	-239.85864	125.85707	1340.4558	-139.09247	241.60973	1154.5444	-126.96585	272.80145	1053.7705	-208.76006	338.49084	1022.8022	-146.12941	413.61789	872.29651	-118.84851	424.77161	883.53192	-192.40866	471.08377	822.61597	-165.50943	-169.79713	1316.5442	-121.57661	-248.88124	1199.1863	-118.94069	-297.08917	996.18628	-194.04019	-357.94434	879.23779	-104.3308	-388.55975	785.95276	-82.465065	-397.89294	796.46143	-157.32707	-437.96759	730.40613	-105.50241	132.95328	891.04401	-47.437126	-158.28316	909.23419	-51.057419	44.393253	928.10846	-231.37517	-42.968033	928.45428	-236.75377
884	8.83	-37.8731	1542.7042	-24.779837	-158.97722	1522.2783	-106.11812	38.298962	1521.2911	-138.96356	-89.95015	1495.382	-217.64684	-32.893417	1328.4536	-211.11095	-9.4645386	1114.4204	-241.68983	-26.471016	1236.124	-17.784164	-15.277021	1081.6982	23.252438	-114.89439	1247.5692	-240.20227	126.65859	1339.9396	-138.87523	238.39848	1151.4086	-125.57158	268.35229	1050.007	-207.68578	331.5087	1016.1501	-143.64372	401.62735	863.24615	-116.59298	414.62491	874.84955	-189.82593	458.34256	812.13544	-162.54945	-169.64709	1316.3402	-122.19015	-247.78461	1198.2996	-119.58094	-292.48279	994.25305	-194.06186	-350.44427	875.59302	-104.20348	-378.84415	781.46442	-82.638847	-389.4151	792.23041	-157.03056	-426.27365	724.17926	-105.38021	132.87842	890.98285	-47.252899	-158.34821	909.29047	-51.466995	44.719982	928.11987	-231.40086	-42.648067	928.48138	-236.9393
885	8.84	-37.686466	1542.6691	-24.878708	-158.58548	1522.3885	-106.46413	38.739655	1521.176	-138.88823	-89.381126	1495.4344	-217.80125	-32.242847	1328.4576	-211.20262	-8.8997908	1114.4243	-241.88127	-26.479612	1236.088	-17.902472	-15.464748	1081.6703	23.019598	-114.05247	1247.5857	-240.70711	127.50951	1339.4259	-138.5598	234.86488	1148.1952	-124.16125	263.56155	1046.1503	-206.03366	324.29056	1009.6447	-141.1465	389.43079	854.72101	-114.44439	404.32413	866.64453	-187.28194	445.34918	802.04968	-159.55562	-169.47086	1316.1937	-122.83257	-246.71202	1197.4407	-120.17764	-287.58859	992.55664	-194.09396	-343.06625	872.15179	-104.22292	-369.06073	777.27441	-82.251633	-380.71783	788.11578	-156.8058	-414.89792	718.26691	-104.18586	132.81122	890.90857	-47.057926	-158.40845	909.34534	-51.889339	45.00132	928.00232	-231.16711	-42.290249	928.42303	-237.0029
886	8.85	-37.456524	1542.6354	-24.951918	-158.18216	1522.4922	-106.80576	39.207809	1521.0924	-138.81512	-88.807251	1495.4747	-217.96532	-31.580959	1328.5024	-211.4585	-8.3625517	1114.3748	-242.01878	-26.475582	1236.0444	-18.063375	-15.670035	1081.6351	22.862757	-113.27367	1247.5397	-241.12849	128.32579	1338.8776	-138.29651	231.19939	1144.8318	-122.70218	258.6853	1042.423	-204.48441	316.99817	1003.473	-138.76047	377.12344	846.5993	-112.4436	393.90125	858.60565	-184.87219	432.12482	792.35919	-156.80455	-169.30232	1316.0498	-123.45574	-245.61842	1196.5786	-120.85936	-283.06107	990.30713	-193.66536	-335.64709	868.96521	-104.17956	-359.3996	773.31256	-82.246315	-371.99973	784.31689	-156.78546	-403.42856	712.89435	-103.99216	132.7475	890.85114	-46.769917	-158.45331	909.4129	-52.253639	45.347458	927.97437	-231.21727	-41.973724	928.40503	-237.16104
887	8.86	-37.250931	1542.5953	-24.997232	-157.81494	1522.6429	-107.17912	39.666706	1520.9901	-138.74248	-88.177818	1495.5403	-218.21344	-30.929262	1328.4922	-211.53	-7.8606977	1114.2681	-242.17583	-26.444042	1236.0476	-18.281162	-15.89191	1081.6165	22.842646	-112.51997	1247.5081	-241.61542	129.17407	1338.2838	-138.02309	227.66994	1141.4175	-121.3843	253.62428	1038.7264	-202.85526	309.72388	997.56531	-136.51123	364.84506	838.96655	-110.6201	383.27499	850.88062	-182.63326	418.89651	783.17719	-154.31255	-169.17351	1315.9132	-124.05623	-244.49144	1195.7422	-121.56934	-278.16492	988.9978	-194.00026	-328.25836	866.02637	-104.08481	-349.83813	769.63312	-82.121643	-363.46335	780.79126	-156.65536	-392.1337	707.8703	-103.62318	132.66553	890.76031	-46.604084	-158.51135	909.5	-52.63961	45.722057	927.94946	-231.1964	-41.632374	928.30756	-237.17146
888	8.87	-37.048248	1542.5554	-25.19821	-157.44748	1522.7686	-107.55592	40.146603	1520.8679	-138.64543	-87.596382	1495.6235	-218.46881	-30.289677	1328.5311	-211.675	-7.3197761	1114.1841	-242.36391	-26.43998	1236.0045	-18.501366	-16.065355	1081.59	22.61142	-111.84969	1247.5707	-242.14804	129.9696	1337.6627	-137.81387	224.39581	1138.1207	-120.34203	248.43159	1035.0825	-201.30412	302.56046	992.00653	-134.52927	352.625	831.77716	-108.9166	372.41928	843.36176	-180.61565	405.44058	774.38324	-152.00406	-169.07625	1315.7668	-124.61588	-243.41449	1194.8965	-122.19596	-273.67755	987.3963	-194.04433	-321.04849	863.36414	-103.98365	-340.45541	766.18927	-82.056686	-355.18561	777.58575	-156.49237	-380.9455	703.07288	-102.36963	132.39455	890.43896	-46.716152	-158.5361	909.53998	-53.02565	46.062637	927.81879	-230.98038	-41.219601	928.24884	-237.30641
889	8.88	-36.842514	1542.514	-25.346138	-157.01991	1522.947	-107.97112	40.642735	1520.8175	-138.57666	-86.973915	1495.7277	-218.6497	-29.733459	1328.5771	-211.81984	-6.7652583	1114.1185	-242.43773	-26.387108	1236.0104	-18.68161	-16.250578	1081.5638	22.574232	-111.23811	1247.7611	-242.80629	130.79227	1337.0072	-137.68405	221.32666	1135.3191	-119.43348	243.13643	1031.6429	-199.9382	295.61649	986.8775	-132.85486	340.6636	825.16412	-107.35988	361.60709	836.24872	-178.87878	391.82458	766.14008	-149.9921	-168.97519	1315.6	-125.29331	-242.30893	1193.9346	-122.90345	-269.85455	985.6192	-193.98494	-314.16165	860.80243	-103.79521	-331.44681	763.05847	-81.921402	-347.5892	774.63397	-156.15503	-370.2793	699.00958	-103.14268	132.67543	890.73651	-45.922497	-158.56696	909.59491	-53.450302	46.490734	927.83374	-231.10585	-40.787498	928.24927	-237.55539
890	8.89	-36.628155	1542.4474	-25.57769	-156.62206	1523.0875	-108.40132	41.09127	1520.7595	-138.49083	-86.333794	1495.9011	-218.92796	-29.232464	1328.8149	-212.05922	-6.2263036	1114.1228	-242.58032	-26.33342	1236.0106	-18.789129	-16.426624	1081.5812	22.448784	-110.70058	1247.9048	-243.25467	131.53267	1336.3315	-137.57025	218.40981	1133.113	-118.50532	237.91789	1028.5936	-198.53238	289.00989	982.36212	-131.38994	329.09763	819.23083	-106.13621	351.09619	829.75867	-177.44424	378.28925	758.39679	-148.25687	-168.86049	1315.3492	-125.75184	-241.27258	1193.052	-123.45235	-265.71762	984.53857	-194.31706	-307.69543	858.42889	-103.54755	-322.79929	760.13184	-81.734375	-340.63684	771.94763	-155.71452	-359.93671	694.95557	-102.13095	132.6526	890.69708	-45.566986	-158.56297	909.65918	-53.902054	46.859417	927.70941	-230.80891	-40.351685	928.20355	-237.59657
891	8.9	-36.41021	1542.3826	-25.714352	-156.19398	1523.2759	-108.84844	41.560349	1520.7759	-138.53659	-85.662704	1496.1351	-219.18399	-28.691719	1329.1559	-212.46042	-5.6859975	1114.1808	-242.7247	-26.292969	1236.0298	-18.845762	-16.557579	1081.6025	22.29385	-110.13818	1248.0253	-243.66571	132.14763	1335.6603	-137.48375	215.76471	1131.3112	-117.62599	233.12094	1025.8958	-197.17252	282.94803	978.27435	-129.94806	318.3219	814.02155	-105.31637	341.20309	823.90839	-176.48094	364.62128	751.02045	-146.49974	-168.68217	1315.1178	-126.28508	-240.0598	1192.282	-123.714	-262.84958	983.27173	-194.40657	-301.60449	856.22015	-103.19473	-314.47949	757.60272	-81.487595	-334.39853	769.3302	-154.84656	-350.25406	691.46014	-101.32929	132.6274	890.66864	-45.166912	-158.55251	909.72266	-54.288017	47.295704	927.66315	-230.66959	-39.940937	928.12183	-237.64519
892	8.91	-36.176846	1542.3441	-25.870281	-155.73361	1523.4546	-109.23699	42.134651	1520.8589	-138.4617	-84.987701	1496.3906	-219.39627	-28.196184	1329.5016	-212.72751	-5.2247691	1114.2404	-242.91551	-26.298296	1236.0851	-18.97731	-16.755848	1081.6268	22.198271	-109.46098	1248.1578	-244.1942	132.69923	1335.04	-137.40559	213.48062	1129.665	-116.69188	228.84254	1023.6141	-195.7477	277.5593	974.64856	-128.76137	308.41058	809.53345	-104.89673	332.16034	818.73181	-175.99501	351.31946	744.27283	-145.17171	-168.48228	1314.9347	-126.69043	-238.76843	1191.525	-124.41588	-259.81174	982.11823	-194.17699	-296.02966	854.33289	-102.80863	-306.77859	755.51349	-81.098526	-328.78458	767.16425	-154.07404	-341.2016	688.55664	-101.21382	132.63747	890.65332	-44.805382	-158.55075	909.77295	-54.720825	47.728416	927.55414	-230.4548	-39.456894	928.13751	-237.80682
